# xmcd
#
# Track frame offsets:
#	150
#	13013
#	28753
#	47542
#	70545
#	82068
#	94014
#	109727
#	120879
#	130348
#	150528
#	170271
#
# Disc length: 2466 seconds
# Revision: 0
# Processed by: cddbd v1.5.2PL0 Copyright (c) Steve Scherf et al.
# Submitted via: dBpowerAMP V12.0
#
DISCID=8a09a00c
DTITLE=Kensington Hillbillys - Bones In The Backyard
DYEAR=2005
DGENRE=Canadian
TTITLE0=The Country Road
TTITLE1=Days Of My Life
TTITLE2=Bones In The Backyard
TTITLE3=Straight To Hell
TTITLE4=Wreck On The I95
TTITLE5=Oh Engineer
TTITLE6=Memories Of You
TTITLE7=Cat Down In A Well
TTITLE8=THX 138
TTITLE9=Geezer Plonk
TTITLE10=Dyin' (Is Just A Part Of Livin')
TTITLE11=The Spirit And The Will
EXTD=
EXTT0=
EXTT1=
EXTT2=
EXTT3=
EXTT4=
EXTT5=
EXTT6=
EXTT7=
EXTT8=
EXTT9=
EXTT10=
EXTT11=
PLAYORDER=
